/* XPM */

static const char *
icon_data[] = {
  /* width height num_colors chars_per_pixel x_hot y_hot */
  "16 16 4 1 0 0",

  /* colors */
  ". s symbol1 c #000000 m black",
  "# s symbol2 c #ffffff m white",
  "a s symbol3 c #6666ff m white",
  "  s mask c none",

  /* pixels */
  "                ",
  " .............. ",
  " .aaaaaaaaaaa#. ",
  " .............. ",
  " .############. ",
  " .############. ",
  " .############. ",
  " .############. ",
  " .############. ",
  " .############. ",
  " .############. ",
  " .############. ",
  " .############. ",
  " .############. ",
  " .............. ",
  "                ",
};
